<?xml version="1.0" encoding="UTF-8"?>
<svg version="1.1" xmlns="http://www.w3.org/2000/svg" width="100%" height="100%">
<path d="M0 0 C29.09858059 11.76039631 53.37055187 69.39024581 65 96 C67.89144639 102.91921046 70.48664111 109.93622824 73 117 C73.27150879 117.74491699 73.54301758 118.48983398 73.82275391 119.25732422 C80.0125351 136.29738276 84.06416265 153.98435831 87.25 171.8125 C87.47647217 173.06099731 87.47647217 173.06099731 87.70751953 174.3347168 C90.55982809 191.19292152 91.38036177 208.05431711 91.3125 225.125 C91.31034485 226.10823242 91.3081897 227.09146484 91.30596924 228.10449219 C91.25170377 243.58740349 90.70142755 258.71839515 88 274 C87.79600586 275.15806152 87.59201172 276.31612305 87.38183594 277.50927734 C75.02530821 345.47017986 40.36314133 409.36130876 -13 454 C-13.53979492 454.45358887 -14.07958984 454.90717773 -14.63574219 455.37451172 C-72.9040566 504.14967378 -143.36129468 530.67469596 -217 546 C-216.67427002 546.45101074 -216.34854004 546.90202148 -216.01293945 547.36669922 C-215.02171366 548.7391657 -214.03050437 550.1116441 -213.03930664 551.48413086 C-211.87064248 553.10221768 -210.70185644 554.72021647 -209.53295898 556.33813477 C-206.59731798 560.40181394 -203.66314716 564.46652314 -200.734375 568.53515625 C-193.47850925 578.60964678 -186.14444836 588.62379787 -178.76611328 598.60888672 C-175.8404389 602.56991172 -172.92055249 606.53519799 -170 610.5 C-168.83594298 612.07943112 -167.67188048 613.6588582 -166.5078125 615.23828125 C-164.14656803 618.44263898 -161.78741454 621.64852217 -159.4296875 624.85546875 C-153.50069967 632.91681185 -147.54800424 640.9581478 -141.52978516 648.953125 C-137.73267285 654.00427209 -133.98781605 659.0923823 -130.25 664.1875 C-123.30134954 673.64682937 -116.19601988 682.98252261 -109.06298828 692.30322266 C-105.55753655 696.88561553 -102.05971451 701.47381911 -98.5625 706.0625 C-97.88678955 706.9488916 -97.2110791 707.8352832 -96.51489258 708.74853516 C-92.40575701 714.14276324 -88.32556568 719.5569484 -84.265625 724.98828125 C-76.71701324 735.02272895 -69.04017 744.96158101 -61.37890625 754.91015625 C-59.80188021 756.95847742 -58.22634141 759.00794455 -56.65234375 761.05859375 C-51.25954675 768.08238301 -45.8305639 775.07706331 -40.38598633 782.06079102 C-36.91255327 786.52207688 -33.46748978 791.00317279 -30.04760742 795.50561523 C-24.73057696 802.50442365 -19.3017934 809.39074746 -13.73413086 816.19189453 C-10.27196612 820.42302263 -6.86342774 824.69003386 -3.5 829 C0.98245608 834.74104851 5.56044381 840.39888215 10.16625977 846.04125977 C13.63893745 850.30311232 17.05813082 854.60141159 20.4375 858.9375 C26.2913609 866.43998605 32.35706569 873.76392412 38.42529297 881.09326172 C40.52491169 883.63559075 42.60646512 886.19244908 44.6875 888.75 C48.37820633 893.26923224 52.1402198 897.72412231 55.91918945 902.16943359 C58.77905411 905.53908071 61.5928129 908.94057856 64.375 912.375 C69.0185276 918.0780134 73.83740409 923.6198598 78.66796875 929.1640625 C81.34233833 932.2353542 83.99002629 935.32814249 86.62890625 938.42993164 C91.81576865 944.52330998 97.12864064 950.47401142 102.5625 956.34765625 C104.51743878 958.47490534 106.42882045 960.62272252 108.3125 962.8125 C119.26313136 975.36009843 131.01356841 987.10850805 142.84887695 998.81201172 C147.86916934 1003.78715551 152.79555057 1008.77665186 157.38305664 1014.16040039 C160.41444246 1017.60921395 163.72348932 1020.78625772 167 1024 C171.63872393 1028.54985949 176.07556494 1033.17014285 180.31640625 1038.09375 C182.91174088 1041.03231914 185.69704493 1043.76131543 188.5 1046.5 C192.60043002 1050.54926912 196.53149625 1054.64630451 200.26171875 1059.04296875 C203.21725063 1062.37043273 206.43281724 1065.43964049 209.59765625 1068.56640625 C211.63714373 1070.63242365 213.555078 1072.73005549 215.4375 1074.9375 C218.30172335 1078.28925073 221.36333716 1081.40556756 224.5 1084.5 C228.24030338 1088.18994588 231.7823935 1091.97503698 235.19140625 1095.97265625 C238.17528004 1099.31743054 241.40619732 1102.41335157 244.59375 1105.5625 C247.24959753 1108.25283906 249.70135432 1111.06573525 252.15625 1113.9375 C254.34796313 1116.38924689 256.66067104 1118.68885573 259 1121 C262.56400302 1124.52106323 265.90304168 1128.13186008 269.15625 1131.9375 C272.14983361 1135.28625455 275.38370569 1138.39117592 278.578125 1141.546875 C281.31734269 1144.32143743 283.8667544 1147.21360255 286.39453125 1150.1796875 C288.00197644 1152.00224092 289.68935998 1153.68798376 291.4375 1155.375 C294 1158 294 1158 294 1160 C239.77316286 1160.32040398 185.54642131 1160.56711435 131.31882388 1160.71491461 C124.91762583 1160.73242463 118.51642964 1160.75054513 112.11523438 1160.76904297 C110.84086497 1160.77271531 109.56649557 1160.77638766 108.25350891 1160.78017129 C87.61558906 1160.84109959 66.97821484 1160.95148836 46.34061874 1161.08013915 C25.16643214 1161.21103461 3.99253141 1161.2888172 -17.18204319 1161.31723893 C-30.24956395 1161.3364547 -43.31554254 1161.39715328 -56.38258858 1161.51083054 C-65.34172627 1161.58480329 -74.30006613 1161.6072092 -83.25948708 1161.58901928 C-88.43026413 1161.58004579 -93.59834602 1161.59384729 -98.76864433 1161.66887665 C-103.50521356 1161.73710965 -108.23728214 1161.74040484 -112.97406043 1161.69258453 C-114.68495044 1161.68667734 -116.39612331 1161.70437619 -118.10645793 1161.74836455 C-130.54129368 1162.04951812 -130.54129368 1162.04951812 -134.65408686 1158.6211932 C-138.11443012 1154.80075957 -140.54269447 1150.50651134 -143 1146 C-144.04380217 1144.42798262 -145.10135874 1142.86471779 -146.1887207 1141.32250977 C-147.10344843 1139.94705124 -148.0158049 1138.57001279 -148.92578125 1137.19140625 C-149.4316275 1136.42983215 -149.93747375 1135.66825806 -150.45864868 1134.88360596 C-151.52841507 1133.27279584 -152.59719369 1131.66132932 -153.66500854 1130.04922485 C-156.51827287 1125.74250551 -159.38030474 1121.44162022 -162.2421875 1117.140625 C-162.81627853 1116.27762283 -163.39036957 1115.41462067 -163.9818573 1114.52546692 C-169.26157686 1106.59474002 -174.58717884 1098.69572716 -179.9375 1090.8125 C-180.36199432 1090.18700256 -180.78648865 1089.56150513 -181.22384644 1088.91705322 C-183.32275228 1085.82512473 -185.42291916 1082.73405599 -187.52392578 1079.64355469 C-190.01749296 1075.97523429 -192.50716706 1072.30428247 -194.99609375 1068.6328125 C-208.41728452 1048.83686731 -221.88710399 1029.07437767 -235.3984375 1009.33984375 C-237.03712194 1006.94576576 -238.67493448 1004.55109346 -240.3125 1002.15625 C-246.3102668 993.38539808 -252.31622604 984.62030798 -258.33984375 975.8671875 C-260.08427489 973.33226131 -261.82643213 970.79579992 -263.56640625 968.2578125 C-271.65424638 956.46576895 -279.82729403 944.73331823 -288 933 C-303.5479135 910.67830905 -303.5479135 910.67830905 -309.625 901.8125 C-315.42101339 893.35889264 -321.30664618 884.96857048 -327.19287109 876.57763672 C-328.9911083 874.01268287 -330.78700256 871.44610634 -332.58203125 868.87890625 C-339.541837 858.92553282 -346.52500198 848.98920003 -353.53662109 839.07226562 C-355.0125684 836.9822021 -356.48524322 834.88986911 -357.95703125 832.796875 C-363.0667746 825.53521939 -368.21745669 818.30783588 -373.4375 811.125 C-377.92536635 804.94831749 -382.28125807 798.69645134 -386.5625 792.375 C-391.05470224 785.74768996 -395.70985743 779.28735436 -400.55322266 772.91308594 C-404.63802144 767.52485646 -408.55054969 762.02919196 -412.43212891 756.4934082 C-417.66753444 749.03087509 -423.01042716 741.64784525 -428.35888672 734.26611328 C-431.07648184 730.51355186 -433.78787009 726.75651207 -436.5 723 C-437.03689453 722.25685547 -437.57378906 721.51371094 -438.12695312 720.74804688 C-440.82577286 717.01246565 -443.5224467 713.27536973 -446.21484375 709.53515625 C-452.34816095 701.01996829 -458.53260679 692.54549816 -464.76928711 684.10571289 C-468.71407211 678.76164154 -472.61945236 673.39086269 -476.5 668 C-485.68520816 655.24672941 -495.01818396 642.60397716 -504.4699707 630.04711914 C-508.85658943 624.21201364 -513.17271567 618.32625549 -517.49023438 612.43994141 C-522.73088728 605.3183611 -528.08985989 598.28957075 -533.49511719 591.29223633 C-534.12579102 590.47134521 -534.75646484 589.6504541 -535.40625 588.8046875 C-535.95603516 588.09296387 -536.50582031 587.38124023 -537.07226562 586.64794922 C-539.83651283 582.85096021 -542.39478699 578.90781951 -545 575 C-545.495 865.07 -545.495 865.07 -546 1161 C-796.8 1161 -1047.6 1161 -1306 1161 C-1303.98980107 1156.97960214 -1302.36447777 1155.25443428 -1299.0625 1152.3125 C-1298.57233398 1151.87389648 -1298.08216797 1151.43529297 -1297.57714844 1150.98339844 C-1294.37586716 1148.14259413 -1291.08906116 1145.42825745 -1287.75 1142.75 C-1281.69469891 1137.86753341 -1276.0880579 1132.54793506 -1270.4296875 1127.21875 C-1266.23191078 1123.26683983 -1261.91709495 1119.47654227 -1257.52246094 1115.74560547 C-1250.37977988 1109.67959403 -1243.33931241 1103.54263174 -1236.48046875 1097.15625 C-1233.02286368 1093.93710045 -1229.51970949 1090.78755757 -1225.9453125 1087.69921875 C-1223.6633471 1085.70593572 -1221.42771426 1083.66506973 -1219.1875 1081.625 C-1215.81059018 1078.57141133 -1212.36782868 1075.65570795 -1208.8125 1072.8125 C-1202.74183338 1067.90595269 -1197.10931085 1062.56799383 -1191.4296875 1057.21875 C-1187.23191078 1053.26683983 -1182.91709495 1049.47654227 -1178.52246094 1045.74560547 C-1170.82207553 1039.20595663 -1163.27591084 1032.54908783 -1155.87890625 1025.66796875 C-1151.3086082 1021.4325365 -1146.60835337 1017.36473809 -1141.859375 1013.33203125 C-1134.71889643 1007.2583712 -1127.74233219 1001.05272228 -1120.87890625 994.66796875 C-1116.3086082 990.4325365 -1111.60835337 986.36473809 -1106.859375 982.33203125 C-1099.71889643 976.2583712 -1092.74233219 970.05272228 -1085.87890625 963.66796875 C-1081.3086082 959.4325365 -1076.60835337 955.36473809 -1071.859375 951.33203125 C-1064.71889643 945.2583712 -1057.74233219 939.05272228 -1050.87890625 932.66796875 C-1046.3086082 928.4325365 -1041.60835337 924.36473809 -1036.859375 920.33203125 C-1029.71889643 914.2583712 -1022.74233219 908.05272228 -1015.87890625 901.66796875 C-1011.3086082 897.4325365 -1006.60835337 893.36473809 -1001.859375 889.33203125 C-994.71889643 883.2583712 -987.74233219 877.05272228 -980.87890625 870.66796875 C-976.3086082 866.4325365 -971.60835337 862.36473809 -966.859375 858.33203125 C-959.71889643 852.2583712 -952.74233219 846.05272228 -945.87890625 839.66796875 C-941.3086082 835.4325365 -936.60835337 831.36473809 -931.859375 827.33203125 C-924.71889643 821.2583712 -917.74233219 815.05272228 -910.87890625 808.66796875 C-906.3086082 804.4325365 -901.60835337 800.36473809 -896.859375 796.33203125 C-889.71889643 790.2583712 -882.74233219 784.05272228 -875.87890625 777.66796875 C-871.3086082 773.4325365 -866.60835337 769.36473809 -861.859375 765.33203125 C-855.90372141 760.26571741 -850.02373619 755.15411012 -844.3125 749.8125 C-839.63971046 745.44249209 -834.81499216 741.35875283 -829.82421875 737.3515625 C-825.39457508 733.66325616 -821.21347693 729.71617954 -817 725.78515625 C-814.0378076 723.02333659 -811.0097866 720.34697566 -807.9453125 717.69921875 C-805.6633471 715.70593572 -803.42771426 713.66506973 -801.1875 711.625 C-797.81059018 708.57141133 -794.36782868 705.65570795 -790.8125 702.8125 C-784.74679782 697.90996514 -779.11835023 692.57741963 -773.4453125 687.23046875 C-770.32224078 684.28967421 -767.13727908 681.43600823 -763.88671875 678.63671875 C-761.56341213 676.62126228 -759.28251535 674.56151538 -757 672.5 C-753.37976277 669.23295665 -749.73016435 666.00479224 -746.05078125 662.8046875 C-743.73911203 660.77041859 -741.4646857 658.6977769 -739.1875 656.625 C-735.81059018 653.57141133 -732.36782868 650.65570795 -728.8125 647.8125 C-722.74679782 642.90996514 -717.11835023 637.57741963 -711.4453125 632.23046875 C-708.32224078 629.28967421 -705.13727908 626.43600823 -701.88671875 623.63671875 C-699.56341213 621.62126228 -697.28251535 619.56151538 -695 617.5 C-689.67665307 612.70092208 -684.31136661 607.9592205 -678.84765625 603.3203125 C-672.26681821 597.72558261 -665.80234102 592.04264888 -659.48046875 586.15625 C-656.02286368 582.93710045 -652.51970949 579.78755757 -648.9453125 576.69921875 C-646.6633471 574.70593572 -644.42771426 572.66506973 -642.1875 570.625 C-638.81059018 567.57141133 -635.36782868 564.65570795 -631.8125 561.8125 C-625.74679782 556.90996514 -620.11835023 551.57741963 -614.4453125 546.23046875 C-611.31881938 543.2864525 -608.13117158 540.4289331 -604.875 537.62890625 C-602.61248819 535.66334911 -600.40309317 533.64326691 -598.1875 531.625 C-594.81059018 528.57141133 -591.36782868 525.65570795 -587.8125 522.8125 C-583.1756605 519.06761265 -578.82715179 515.09198641 -574.5 511 C-569.40955138 506.18647794 -564.26110428 501.59869282 -558.7578125 497.2578125 C-556.05326271 495.15586824 -556.05326271 495.15586824 -554.19273376 493.01275635 C-551.1246814 489.82131286 -548.6738012 487.28120109 -544.203125 486.53012085 C-541.00045116 486.65187588 -537.91742614 487.01332423 -534.74609375 487.4765625 C-532.33141868 487.74129133 -529.9158381 487.99786387 -527.49951172 488.24707031 C-526.25997742 488.38181763 -525.02044312 488.51656494 -523.74334717 488.65539551 C-517.73896017 489.20814647 -511.74932519 489.29532527 -505.72265625 489.3359375 C-504.53256958 489.34493073 -503.34248291 489.35392395 -502.11633301 489.3631897 C-498.43159762 489.38057635 -494.74726832 489.38095083 -491.0625 489.375 C-489.78139343 489.37445618 -488.50028687 489.37391235 -487.18035889 489.37335205 C-447.63040824 489.29655126 -409.76629389 484.23732627 -372 472 C-371.28166992 471.76877441 -370.56333984 471.53754883 -369.82324219 471.29931641 C-338.50717509 460.98117243 -310.7547106 443.60697202 -287 421 C-286.29488281 420.34773438 -285.58976563 419.69546875 -284.86328125 419.0234375 C-246.82024296 382.75522655 -232.40838348 328.05964174 -224.1875 278 C-223.99269043 276.82244141 -223.79788086 275.64488281 -223.59716797 274.43164062 C-221.26767458 259.48183461 -219.66843275 244.5694584 -220.26171875 229.4296875 C-220.30993019 228.00055023 -220.30993019 228.00055023 -220.3591156 226.5425415 C-220.49323971 222.66624193 -220.63040958 218.79422423 -220.87084961 214.92285156 C-221.88920969 197.68642883 -221.88920969 197.68642883 -217.2043457 192.09545898 C-214.0749721 188.97476786 -210.63789886 186.49706654 -207 184 C-205.58558938 182.79225665 -204.1837218 181.56906364 -202.8125 180.3125 C-202.20019531 179.78269531 -201.58789062 179.25289062 -200.95703125 178.70703125 C-198.6144085 176.66366569 -196.30726578 174.58319141 -194 172.5 C-191.04130249 169.82951656 -188.07073528 167.17701942 -185.0625 164.5625 C-181.83440488 161.75177475 -178.66261557 158.884201 -175.5 156 C-171.71337002 152.54671847 -167.8952368 149.13900949 -164.02734375 145.77734375 C-161.66510827 143.70640513 -159.33204147 141.60487152 -157 139.5 C-153.38323655 136.23609152 -149.73610392 133.01209051 -146.0625 129.8125 C-143.69035571 127.72788836 -141.34443935 125.61571356 -139 123.5 C-136.01937279 120.81016569 -133.02754767 118.13689636 -130 115.5 C-125.28298716 111.38918961 -120.64361111 107.19332155 -116 103 C-110.72014424 98.23213025 -105.42708194 93.48487782 -100.0625 88.8125 C-97.69035571 86.72788836 -95.34443935 84.61571356 -93 82.5 C-89.38323655 79.23609152 -85.73610392 76.01209051 -82.0625 72.8125 C-78.8248667 69.9673071 -75.6331371 67.07146164 -72.43359375 64.18359375 C-70.32488854 62.29151315 -68.20080199 60.42094242 -66.0625 58.5625 C-62.83440488 55.75177475 -59.66261557 52.884201 -56.5 50 C-52.71337002 46.54671847 -48.8952368 43.13900949 -45.02734375 39.77734375 C-42.66510827 37.70640513 -40.33204147 35.60487152 -38 33.5 C-34.38323655 30.23609152 -30.73610392 27.01209051 -27.0625 23.8125 C-24.69035571 21.72788836 -22.34443935 19.61571356 -20 17.5 C-13.41977061 11.56469355 -6.73788209 5.75527429 0 0 Z " fill="#005CAA" transform="translate(1306,230)"/>
<path d="M0 0 C35.23707616 -0.03241965 35.23707616 -0.03241965 48.90953064 -0.04443359 C50.18617837 -0.04555557 50.18617837 -0.04555557 51.48861697 -0.04670021 C107.89440445 -0.0961982 164.30019121 -0.14087917 220.70599365 -0.16937256 C222.34158768 -0.1702009 222.34158768 -0.1702009 224.010224 -0.17104598 C247.71257299 -0.18302011 271.41492232 -0.19410048 295.11727215 -0.20426132 C306.74240677 -0.20925027 318.3675413 -0.21443654 329.99267578 -0.21972656 C331.72785395 -0.22051112 331.72785395 -0.22051112 333.49808623 -0.22131152 C370.93237307 -0.23832965 408.36663562 -0.26835443 445.80090776 -0.30518888 C484.29827369 -0.34300022 522.79562619 -0.3675605 561.29301036 -0.37565996 C566.74167359 -0.37681243 572.19033677 -0.37811497 577.63899994 -0.37950897 C579.24742098 -0.37991351 579.24742098 -0.37991351 580.88833538 -0.38032622 C598.08687743 -0.38503663 615.28537774 -0.40354413 632.48390283 -0.42732814 C649.8119031 -0.4509925 667.13986236 -0.45984325 684.46787819 -0.45400551 C694.73834529 -0.45098387 705.00866125 -0.45888684 715.2791008 -0.48319017 C722.17104564 -0.49837103 729.0628934 -0.49852984 735.95484538 -0.48732725 C739.86177059 -0.48138162 743.76841352 -0.48114911 747.67530647 -0.49953273 C763.9203476 -0.5712959 779.90104894 0.02590137 796.05559921 1.83084488 C796.78814127 1.91205177 797.52068333 1.99325867 798.27542363 2.07692638 C845.47318895 7.42370758 889.41599777 23.44494182 931 46 C931 48 931 48 929.6015625 49.41015625 C928.94929688 49.95542969 928.29703125 50.50070313 927.625 51.0625 C924.37058933 53.82817409 921.16586167 56.63308192 918 59.5 C914.38323655 62.76390848 910.73610392 65.98790949 907.0625 69.1875 C904.69035571 71.27211164 902.34443935 73.38428644 900 75.5 C896.38323655 78.76390848 892.73610392 81.98790949 889.0625 85.1875 C886.69035571 87.27211164 884.34443935 89.38428644 882 91.5 C878.38323655 94.76390848 874.73610392 97.98790949 871.0625 101.1875 C868.69035571 103.27211164 866.34443935 105.38428644 864 107.5 C858.67665307 112.29907792 853.31136661 117.0407795 847.84765625 121.6796875 C841.26681821 127.27441739 834.80234102 132.95735112 828.48046875 138.84375 C825.02630626 142.05969439 821.52564408 145.20517955 817.95703125 148.29296875 C815.6144085 150.33633431 813.30726578 152.41680859 811 154.5 C807.38323655 157.76390848 803.73610392 160.98790949 800.0625 164.1875 C797.69035571 166.27211164 795.34443935 168.38428644 793 170.5 C789.38323655 173.76390848 785.73610392 176.98790949 782.0625 180.1875 C779.69035571 182.27211164 777.34443935 184.38428644 775 186.5 C773.33358753 188.00028239 771.66693061 189.50029332 770 191 C769.27296875 191.65613281 768.5459375 192.31226563 767.796875 192.98828125 C767.12140625 193.59027344 766.4459375 194.19226563 765.75 194.8125 C764.87601563 195.59560547 764.87601563 195.59560547 763.984375 196.39453125 C761.44104365 198.4522265 758.73993304 200.21594755 756 202 C755.12601563 200.25589844 755.12601563 200.25589844 754.234375 198.4765625 C744.21131428 178.78307358 732.076963 160.51566825 717.0625 144.25 C715.24942906 142.27210442 713.52960986 140.24803183 711.8125 138.1875 C689.67064133 112.94781248 655.17261588 88.56174757 621 85 C573.5187528 83.02564728 520.4744247 92.39506657 483.97265625 125.14453125 C469.47525581 138.73085437 459.09562997 156.69674953 457.82023025 176.83909822 C457.7566434 179.99785019 457.75430931 183.15076186 457.77536011 186.31008911 C457.77521223 187.51355323 457.77506436 188.71701734 457.774912 189.95695007 C457.77603783 192.58234157 457.78079445 195.20742102 457.79187965 197.83275986 C457.80990917 202.10571496 457.81402528 206.37862289 457.81660461 210.65161133 C457.82160275 216.85455263 457.83297654 223.05745491 457.84786606 229.26037979 C457.87063149 239.06763298 457.87033013 248.87482492 457.86599731 258.68209839 C457.8647653 262.04162023 457.86363081 265.40114211 457.8624897 268.76066399 C457.86219197 269.60006101 457.86189424 270.43945804 457.86158749 271.30429135 C457.85838875 280.84462583 457.85863622 290.38495838 457.86132812 299.92529297 C457.86168643 301.23252384 457.86168643 301.23252384 457.86205198 302.56616341 C457.86666162 316.70246831 457.8936861 330.83866067 457.92714594 344.97492267 C457.96081799 359.50277854 457.96394771 374.03043059 457.94040024 388.55830657 C457.92698117 397.51256266 457.93830834 406.46609784 457.98152931 415.4202628 C458.00899458 421.55399898 458.00733625 427.68729257 457.98281483 433.82103957 C457.9695773 437.35867318 457.9693232 440.89505268 458.00410271 444.4325676 C458.04151855 448.27023956 458.01694035 452.10611282 457.98654175 455.94387817 C458.00731777 457.05769304 458.02809379 458.17150791 458.04949939 459.31907475 C457.9473876 465.12659315 457.33500538 468.32498797 453.18052864 472.53866386 C451.81042216 473.72013854 450.41704828 474.87525632 449 476 C447.70461479 477.14162777 446.41239616 478.28687064 445.125 479.4375 C444.46371094 480.00597656 443.80242187 480.57445312 443.12109375 481.16015625 C440.77508942 483.19508819 438.4826355 485.28290967 436.1875 487.375 C432.81059018 490.42858867 429.36782868 493.34429205 425.8125 496.1875 C419.74679782 501.09003486 414.11835023 506.42258037 408.4453125 511.76953125 C405.32224078 514.71032579 402.13727908 517.56399177 398.88671875 520.36328125 C396.56341213 522.37873772 394.28251535 524.43848462 392 526.5 C388.38323655 529.76390848 384.73610392 532.98790949 381.0625 536.1875 C378.69035571 538.27211164 376.34443935 540.38428644 374 542.5 C368.67665307 547.29907792 363.31136661 552.0407795 357.84765625 556.6796875 C351.26681821 562.27441739 344.80234102 567.95735112 338.48046875 573.84375 C335.02630626 577.05969439 331.52564408 580.20517955 327.95703125 583.29296875 C325.6144085 585.33633431 323.30726578 587.41680859 321 589.5 C317.38323655 592.76390848 313.73610392 595.98790949 310.0625 599.1875 C307.69035571 601.27211164 305.34443935 603.38428644 303 605.5 C297.67665307 610.29907792 292.31136661 615.0407795 286.84765625 619.6796875 C280.26681821 625.27441739 273.80234102 630.95735112 267.48046875 636.84375 C264.02630626 640.05969439 260.52564408 643.20517955 256.95703125 646.29296875 C254.6144085 648.33633431 252.30726578 650.41680859 250 652.5 C246.38323655 655.76390848 242.73610392 658.98790949 239.0625 662.1875 C236.69035571 664.27211164 234.34443935 666.38428644 232 668.5 C226.67665307 673.29907792 221.31136661 678.0407795 215.84765625 682.6796875 C209.26681821 688.27441739 202.80234102 693.95735112 196.48046875 699.84375 C193.03033628 703.0559423 189.5347297 706.19879297 185.96875 709.28125 C182.73590318 712.10357659 179.56918808 714.99926836 176.39453125 717.88671875 C169.4676525 724 169.4676525 724 167 724 C167.00075944 722.90267852 167.00151888 721.80535705 167.00230134 720.67478341 C167.03565878 672.28549602 167.06651159 623.8962079 167.08468628 575.50691223 C167.08496239 574.77365232 167.08523851 574.04039241 167.08552299 573.2849125 C167.09150961 557.34697387 167.09704986 541.40903511 167.10213066 525.47109617 C167.10462521 517.6544775 167.10721833 509.83785886 167.10986328 502.02124023 C167.11025556 500.85450504 167.11025556 500.85450504 167.11065576 499.66419944 C167.11916962 474.47905591 167.13418563 449.2939214 167.15259444 424.10878333 C167.17148657 398.21523628 167.18377713 372.32169422 167.18782998 346.42814041 C167.18840624 342.76598532 167.18905751 339.10383025 167.18975449 335.44167519 C167.18988933 334.72095167 167.19002418 334.00022816 167.19016311 333.25766454 C167.19252121 321.68312752 167.20178287 310.10860596 167.21366407 298.53407524 C167.22547684 286.88134426 167.22976517 275.22863229 167.22700275 263.57589515 C167.22572458 257.26886872 167.2276537 250.96188744 167.23841095 244.65486908 C167.24820503 238.87004575 167.24859525 233.08529755 167.24179779 227.30047063 C167.24095873 225.21804525 167.2434433 223.13561502 167.24976636 221.05319908 C167.29855411 203.97981425 166.51492921 187.13661521 162.375 170.5 C162.11775146 169.45175049 161.86050293 168.40350098 161.59545898 167.32348633 C155.13365157 142.20781807 142.44591471 118.11723471 120 104 C98.04460309 91.12727495 73.42925209 86.12637898 48.37768555 83.54150391 C45.56433414 83.25018992 42.75402637 82.9371625 39.94335938 82.62109375 C26.57823886 81.18298637 13.48462447 80.58628802 0 80 C0 53.6 0 27.2 0 0 Z " fill="#005CAA" transform="translate(303,123)"/>
<path d="M0 0 C0 137.94 0 275.88 0 418 C-155.43 418 -310.86 418 -471 418 C-468.98980107 413.97960214 -467.36447777 412.25443428 -464.0625 409.3125 C-463.32725098 408.65459473 -463.32725098 408.65459473 -462.57714844 407.98339844 C-459.37586716 405.14259413 -456.08906116 402.42825745 -452.75 399.75 C-446.69469891 394.86753341 -441.0880579 389.54793506 -435.4296875 384.21875 C-431.23191078 380.26683983 -426.91709495 376.47654227 -422.52246094 372.74560547 C-415.37977988 366.67959403 -408.33931241 360.54263174 -401.48046875 354.15625 C-398.02286368 350.93710045 -394.51970949 347.78755757 -390.9453125 344.69921875 C-388.6633471 342.70593572 -386.42771426 340.66506973 -384.1875 338.625 C-380.81059018 335.57141133 -377.36782868 332.65570795 -373.8125 329.8125 C-367.74183338 324.90595269 -362.10931085 319.56799383 -356.4296875 314.21875 C-352.23191078 310.26683983 -347.91709495 306.47654227 -343.52246094 302.74560547 C-335.82207553 296.20595663 -328.27591084 289.54908783 -320.87890625 282.66796875 C-316.3086082 278.4325365 -311.60835337 274.36473809 -306.859375 270.33203125 C-299.71889643 264.2583712 -292.74233219 258.05272228 -285.87890625 251.66796875 C-281.3086082 247.4325365 -276.60835337 243.36473809 -271.859375 239.33203125 C-264.71889643 233.2583712 -257.74233219 227.05272228 -250.87890625 220.66796875 C-246.3086082 216.4325365 -241.60835337 212.36473809 -236.859375 208.33203125 C-229.71889643 202.2583712 -222.74233219 196.05272228 -215.87890625 189.66796875 C-211.3086082 185.4325365 -206.60835337 181.36473809 -201.859375 177.33203125 C-194.71889643 171.2583712 -187.74233219 165.05272228 -180.87890625 158.66796875 C-176.3086082 154.4325365 -171.60835337 150.36473809 -166.859375 146.33203125 C-159.71889643 140.2583712 -152.74233219 134.05272228 -145.87890625 127.66796875 C-141.3086082 123.4325365 -136.60835337 119.36473809 -131.859375 115.33203125 C-124.71889643 109.2583712 -117.74233219 103.05272228 -110.87890625 96.66796875 C-106.3086082 92.4325365 -101.60835337 88.36473809 -96.859375 84.33203125 C-89.71889643 78.2583712 -82.74233219 72.05272228 -75.87890625 65.66796875 C-71.3086082 61.4325365 -66.60835337 57.36473809 -61.859375 53.33203125 C-54.71889643 47.2583712 -47.74233219 41.05272228 -40.87890625 34.66796875 C-36.3086082 30.4325365 -31.60835337 26.36473809 -26.859375 22.33203125 C-25.67673293 21.32593258 -24.49445299 20.3194081 -23.3125 19.3125 C-22.71800049 18.80614014 -22.12350098 18.29978027 -21.51098633 17.77807617 C-16.58595515 13.55747049 -11.80708988 9.19364226 -7.0871582 4.74536133 C-2.02741769 0 -2.02741769 0 0 0 Z " fill="#12B4E9" transform="translate(471,973)"/>
</svg>
