<svg version="1.1" id="Layer_1" xmlns="http://www.w3.org/2000/svg" xmlns:xlink="http://www.w3.org/1999/xlink" x="0px" y="0px"
	 width="100%" viewBox="0 0 1600 1600" enable-background="new 0 0 1600 1600" xml:space="preserve">
<path fill="currentColor" opacity="0" stroke="none" 
	d="
M1.000002,1389.000000 
	C1.000000,926.375305 1.000000,463.750549 1.000000,1.062917 
	C534.243042,1.062917 1067.486084,1.062917 1601.000000,1.062917 
	C1601.000000,463.034882 1601.000000,925.069824 1600.687988,1387.769165 
	C1599.133179,1387.337524 1597.791260,1386.334473 1596.663574,1385.130615 
	C1587.364990,1375.205444 1578.140259,1365.210938 1568.826538,1355.299927 
	C1557.701050,1343.461182 1546.506958,1331.686890 1535.348389,1319.879395 
	C1523.613403,1307.461914 1511.916016,1295.008789 1500.146484,1282.624268 
	C1485.976440,1267.713745 1471.769653,1252.838135 1457.538574,1237.986084 
	C1441.565796,1221.316406 1425.435669,1204.795898 1409.594360,1188.002808 
	C1400.757446,1178.635010 1392.175049,1169.009277 1383.824585,1159.204712 
	C1372.505371,1145.914185 1361.481934,1132.370728 1350.398682,1118.880737 
	C1338.380371,1104.252563 1326.308105,1089.665771 1314.499023,1074.869629 
	C1301.170044,1058.169067 1288.104370,1041.258423 1274.931396,1024.433472 
	C1262.669067,1008.771606 1250.293213,993.196594 1238.191406,977.411438 
	C1223.901001,958.771606 1209.782471,939.998718 1195.713379,921.190857 
	C1175.749756,894.503235 1155.859009,867.760681 1136.015747,840.983398 
	C1124.480347,825.416992 1113.075928,809.753174 1101.659912,794.098755 
	C1097.451416,788.327698 1093.378784,782.457458 1089.262939,776.658936 
	C1096.221069,775.050232 1102.576416,773.453003 1108.986694,772.120239 
	C1143.510254,764.942566 1176.707886,753.738403 1208.716431,739.040039 
	C1228.175781,730.104370 1246.672241,719.415833 1264.290771,707.213074 
	C1280.881714,695.721985 1296.540161,683.099854 1310.696167,668.710266 
	C1316.836914,662.468262 1322.506470,655.757507 1328.304077,649.183899 
	C1343.302979,632.177063 1356.119019,613.549377 1365.721924,593.098816 
	C1373.581177,576.361450 1380.051147,558.901672 1386.107544,541.405762 
	C1393.510376,520.020081 1396.726807,497.604004 1397.786499,475.126617 
	C1399.064941,448.012360 1397.660767,420.970703 1392.163574,394.164001 
	C1386.588867,366.979736 1377.999023,340.914429 1366.357300,315.800201 
	C1355.443237,292.255676 1341.403931,270.620789 1325.502197,250.194550 
	C1320.175415,243.352402 1314.132324,237.068008 1308.190063,230.269409 
	C1303.120972,234.976868 1298.829590,239.106445 1294.384644,243.063553 
	C1279.949707,255.914352 1265.441162,268.682526 1250.996460,281.522339 
	C1244.073730,287.675964 1237.280396,293.975586 1230.340454,300.109497 
	C1216.741333,312.129120 1203.026001,324.017639 1189.462769,336.077271 
	C1178.708008,345.639709 1168.155640,355.429474 1157.428101,365.022797 
	C1142.672485,378.218079 1127.828979,391.314850 1113.038452,404.470978 
	C1106.248535,410.510529 1099.695679,416.839020 1092.637695,422.544800 
	C1089.261963,425.273743 1087.650879,427.288788 1087.672485,432.339996 
	C1087.758667,452.385681 1087.678467,472.544922 1085.630493,492.453278 
	C1083.808838,510.162659 1079.823730,527.713562 1075.876221,545.126526 
	C1068.363647,578.266846 1056.246216,609.326599 1034.550903,636.248657 
	C1018.137146,656.616882 998.530579,672.873352 975.870850,685.512085 
	C934.481567,708.597534 889.218018,717.725464 842.566406,720.812378 
	C825.311768,721.954163 807.915955,721.154663 790.589172,720.910828 
	C784.692505,720.827881 778.800049,719.167542 772.923950,719.270752 
	C767.597229,719.364258 761.710876,716.446106 756.910706,720.655334 
	C744.247437,731.759155 731.752441,743.055237 719.210754,754.297424 
	C712.201599,760.580322 705.283508,766.965637 698.235107,773.203979 
	C684.527283,785.336243 670.730774,797.368469 657.022583,809.500366 
	C649.968079,815.743591 643.084778,822.180481 636.017883,828.409302 
	C622.915405,839.958191 609.686768,851.364136 596.602295,862.933228 
	C586.448730,871.910767 576.474609,881.090881 566.348755,890.100098 
	C552.057312,902.815552 537.691956,915.447937 523.373230,928.132812 
	C516.820129,933.938232 510.308502,939.790527 503.768127,945.610352 
	C492.822754,955.349792 481.869293,965.080261 470.567841,974.884033 
	C456.947784,986.666016 443.660400,998.357300 430.418427,1010.099731 
	C423.641022,1016.109680 417.003571,1022.278076 410.199066,1028.256714 
	C397.276123,1039.611206 384.219299,1050.813843 371.330750,1062.206909 
	C360.974335,1071.361572 350.833221,1080.759521 340.508423,1089.950562 
	C326.294128,1102.603882 311.983826,1115.149536 297.740479,1127.770264 
	C291.219971,1133.548096 284.798584,1139.437744 278.266205,1145.201782 
	C264.609558,1157.252319 250.886520,1169.227783 237.236359,1181.285889 
	C230.468018,1187.264771 223.857468,1193.422607 217.075607,1199.385864 
	C204.032104,1210.854980 190.863892,1222.182373 177.849579,1233.684326 
	C167.626709,1242.719116 157.626678,1252.005981 147.402588,1261.039429 
	C134.521683,1272.419922 121.508064,1283.650146 108.562286,1294.957275 
	C100.288330,1302.183960 91.995529,1309.389648 83.778275,1316.680298 
	C68.674103,1330.081421 53.598785,1343.515137 38.551086,1356.979492 
	C28.249592,1366.197144 18.061563,1375.542236 7.710029,1384.702881 
	C5.744792,1386.442017 3.250324,1387.583008 1.000002,1389.000000 
M470.999084,462.500000 
	C470.999084,590.879211 470.999084,719.258362 470.999084,848.559753 
	C472.652740,847.397705 473.466156,846.937500 474.148071,846.329773 
	C480.698334,840.491638 487.178864,834.574524 493.770844,828.784180 
	C506.783264,817.354187 519.917603,806.062500 532.880554,794.577026 
	C543.540588,785.131958 553.969971,775.426941 564.602539,765.950439 
	C578.773438,753.320312 593.054810,740.814331 607.263000,728.226013 
	C613.830811,722.407166 620.305237,716.482971 626.879395,710.671448 
	C640.737549,698.421021 654.653870,686.236389 668.505310,673.978394 
	C675.315308,667.951782 681.996643,661.779785 688.801697,655.747498 
	C702.901855,643.248352 717.027893,630.778198 731.179016,618.336670 
	C738.481934,611.915955 745.841125,605.558655 753.213379,599.217407 
	C758.237366,594.895996 761.280701,590.458435 761.248779,582.851624 
	C760.865417,491.367981 761.078979,399.882050 760.942993,308.397003 
	C760.910278,286.416809 769.210754,268.051331 784.102844,252.524277 
	C796.365479,239.738724 811.430054,230.763184 827.757935,224.309891 
	C838.828369,219.934540 850.363159,216.478470 861.960754,213.768753 
	C872.463257,211.314896 883.312256,210.274033 894.044739,208.892044 
	C906.901428,207.236496 919.762512,207.235870 932.542480,209.797302 
	C947.259155,212.746918 960.404175,219.262909 973.148254,226.995850 
	C995.594604,240.615997 1014.814209,257.934540 1030.620117,278.656006 
	C1041.832275,293.354980 1051.245483,309.426025 1061.603271,325.098877 
	C1118.829346,274.283386 1176.942505,222.680099 1235.209106,170.940659 
	C1216.072388,159.596069 1196.472290,150.745956 1176.114502,143.607605 
	C1158.770386,137.526031 1141.136719,132.393906 1122.865723,129.915726 
	C1107.239868,127.796333 1091.577759,124.273315 1075.927734,124.251541 
	C820.469421,123.896141 565.010437,123.998878 309.551605,124.008766 
	C307.793671,124.008835 306.035736,124.154015 304.334717,124.228928 
	C304.334717,151.057938 304.334717,177.304657 304.334717,202.784210 
	C322.788696,204.547043 340.824402,206.347488 358.876038,207.970901 
	C374.645691,209.389099 390.069427,212.373932 404.860352,218.079086 
	C427.886444,226.960739 445.357513,241.962509 456.247345,264.482452 
	C466.537598,285.762512 471.416504,308.352661 471.810455,331.688934 
	C472.290436,360.116821 471.316833,388.567963 471.068298,417.009918 
	C470.938721,431.838989 471.016022,446.669922 470.999084,462.500000 
z"/>
<path fill="#005DAA" opacity="1.000000" stroke="none" 
	d="
M470.919250,974.814514 
	C481.869293,965.080261 492.822754,955.349792 503.768127,945.610352 
	C510.308502,939.790527 516.820129,933.938232 523.373230,928.132812 
	C537.691956,915.447937 552.057312,902.815552 566.348755,890.100098 
	C576.474609,881.090881 586.448730,871.910767 596.602295,862.933228 
	C609.686768,851.364136 622.915405,839.958191 636.017883,828.409302 
	C643.084778,822.180481 649.968079,815.743591 657.022583,809.500366 
	C670.730774,797.368469 684.527283,785.336243 698.235107,773.203979 
	C705.283508,766.965637 712.201599,760.580322 719.210754,754.297424 
	C731.752441,743.055237 744.247437,731.759155 756.910706,720.655334 
	C761.710876,716.446106 767.597229,719.364258 772.923950,719.270752 
	C778.800049,719.167542 784.692505,720.827881 790.589172,720.910828 
	C807.915955,721.154663 825.311768,721.954163 842.566406,720.812378 
	C889.218018,717.725464 934.481567,708.597534 975.870850,685.512085 
	C998.530579,672.873352 1018.137146,656.616882 1034.550903,636.248657 
	C1056.246216,609.326599 1068.363647,578.266846 1075.876221,545.126526 
	C1079.823730,527.713562 1083.808838,510.162659 1085.630493,492.453278 
	C1087.678467,472.544922 1087.758667,452.385681 1087.672485,432.339996 
	C1087.650879,427.288788 1089.261963,425.273743 1092.637695,422.544800 
	C1099.695679,416.839020 1106.248535,410.510529 1113.038452,404.470978 
	C1127.828979,391.314850 1142.672485,378.218079 1157.428101,365.022797 
	C1168.155640,355.429474 1178.708008,345.639709 1189.462769,336.077271 
	C1203.026001,324.017639 1216.741333,312.129120 1230.340454,300.109497 
	C1237.280396,293.975586 1244.073730,287.675964 1250.996460,281.522339 
	C1265.441162,268.682526 1279.949707,255.914352 1294.384644,243.063553 
	C1298.829590,239.106445 1303.120972,234.976868 1308.190063,230.269409 
	C1314.132324,237.068008 1320.175415,243.352402 1325.502197,250.194550 
	C1341.403931,270.620789 1355.443237,292.255676 1366.357300,315.800201 
	C1377.999023,340.914429 1386.588867,366.979736 1392.163574,394.164001 
	C1397.660767,420.970703 1399.064941,448.012360 1397.786499,475.126617 
	C1396.726807,497.604004 1393.510376,520.020081 1386.107544,541.405762 
	C1380.051147,558.901672 1373.581177,576.361450 1365.721924,593.098816 
	C1356.119019,613.549377 1343.302979,632.177063 1328.304077,649.183899 
	C1322.506470,655.757507 1316.836914,662.468262 1310.696167,668.710266 
	C1296.540161,683.099854 1280.881714,695.721985 1264.290771,707.213074 
	C1246.672241,719.415833 1228.175781,730.104370 1208.716431,739.040039 
	C1176.707886,753.738403 1143.510254,764.942566 1108.986694,772.120239 
	C1102.576416,773.453003 1096.221069,775.050232 1089.262939,776.658936 
	C1093.378784,782.457458 1097.451416,788.327698 1101.659912,794.098755 
	C1113.075928,809.753174 1124.480347,825.416992 1136.015747,840.983398 
	C1155.859009,867.760681 1175.749756,894.503235 1195.713379,921.190857 
	C1209.782471,939.998718 1223.901001,958.771606 1238.191406,977.411438 
	C1250.293213,993.196594 1262.669067,1008.771606 1274.931396,1024.433472 
	C1288.104370,1041.258423 1301.170044,1058.169067 1314.499023,1074.869629 
	C1326.308105,1089.665771 1338.380371,1104.252563 1350.398682,1118.880737 
	C1361.481934,1132.370728 1372.505371,1145.914185 1383.824585,1159.204712 
	C1392.175049,1169.009277 1400.757446,1178.635010 1409.594360,1188.002808 
	C1425.435669,1204.795898 1441.565796,1221.316406 1457.538574,1237.986084 
	C1471.769653,1252.838135 1485.976440,1267.713745 1500.146484,1282.624268 
	C1511.916016,1295.008789 1523.613403,1307.461914 1535.348389,1319.879395 
	C1546.506958,1331.686890 1557.701050,1343.461182 1568.826538,1355.299927 
	C1578.140259,1365.210938 1587.364990,1375.205444 1596.663574,1385.130615 
	C1597.791260,1386.334473 1599.133179,1387.337524 1600.687988,1388.216797 
	C1601.000000,1388.750000 1601.000000,1389.500000 1600.531372,1390.625122 
	C1460.404907,1391.000122 1320.747070,1390.961304 1181.089478,1391.146851 
	C1175.723511,1391.154053 1172.678589,1389.214966 1169.944946,1385.122559 
	C1159.088501,1368.869507 1148.095093,1352.707764 1137.139771,1336.520874 
	C1118.278809,1308.652954 1099.455811,1280.759155 1080.523682,1252.939575 
	C1068.888672,1235.842529 1057.074951,1218.866699 1045.350830,1201.830200 
	C1026.263672,1174.094360 1007.315918,1146.261353 988.065491,1118.639282 
	C967.501404,1089.132324 946.746887,1059.756592 925.902527,1030.446533 
	C908.868408,1006.494324 891.584229,982.719910 874.402588,958.872681 
	C858.951782,937.427856 843.638489,915.881836 827.993347,894.579712 
	C810.181946,870.327942 792.069580,846.297119 774.088379,822.169983 
	C769.972778,816.647644 765.858948,811.123840 761.744324,805.600708 
	C761.415161,805.727722 761.085999,805.854736 760.756836,805.981812 
	C760.756836,1001.207397 760.756836,1196.432983 760.756836,1392.000000 
	C758.441833,1392.000000 756.630432,1392.000000 754.819031,1392.000000 
	C662.324646,1392.000000 569.830261,1392.001099 477.335846,1391.991333 
	C475.507172,1391.991089 473.678528,1391.861938 471.860474,1391.337158 
	C471.887878,1253.775146 471.908020,1116.668823 471.879822,979.562500 
	C471.879486,977.979797 471.253296,976.397156 470.919250,974.814514 
z"/>
<path fill="#ffffff" opacity="0" stroke="none" 
	d="
M471.849854,1391.792969 
	C473.678528,1391.861938 475.507172,1391.991089 477.335846,1391.991333 
	C569.830261,1392.001099 662.324646,1392.000000 754.819031,1392.000000 
	C756.630432,1392.000000 758.441833,1392.000000 760.756836,1392.000000 
	C760.756836,1196.432983 760.756836,1001.207397 760.756836,805.981812 
	C761.085999,805.854736 761.415161,805.727722 761.744324,805.600708 
	C765.858948,811.123840 769.972778,816.647644 774.088379,822.169983 
	C792.069580,846.297119 810.181946,870.327942 827.993347,894.579712 
	C843.638489,915.881836 858.951782,937.427856 874.402588,958.872681 
	C891.584229,982.719910 908.868408,1006.494324 925.902527,1030.446533 
	C946.746887,1059.756592 967.501404,1089.132324 988.065491,1118.639282 
	C1007.315918,1146.261353 1026.263672,1174.094360 1045.350830,1201.830200 
	C1057.074951,1218.866699 1068.888672,1235.842529 1080.523682,1252.939575 
	C1099.455811,1280.759155 1118.278809,1308.652954 1137.139771,1336.520874 
	C1148.095093,1352.707764 1159.088501,1368.869507 1169.944946,1385.122559 
	C1172.678589,1389.214966 1175.723511,1391.154053 1181.089478,1391.146851 
	C1320.747070,1390.961304 1460.404907,1391.000122 1600.531372,1391.000122 
	C1601.000000,1460.984863 1601.000000,1530.969604 1601.000000,1600.950195 
	C1067.666626,1600.946045 534.333313,1600.946045 1.000000,1600.946045 
	C1.000000,1531.573853 1.000000,1462.255615 1.468657,1392.468262 
	C156.413055,1391.999512 310.888794,1392.000488 465.364532,1391.991211 
	C467.526306,1391.991089 469.688080,1391.861938 471.849854,1391.792969 
z"/>
<path fill="#13B5EA" opacity="1.000000" stroke="none" 
	d="
M471.860474,1391.337158 
	C469.688080,1391.861938 467.526306,1391.991089 465.364532,1391.991211 
	C310.888794,1392.000488 156.413055,1391.999512 1.468657,1391.999756 
	C1.000000,1391.250000 1.000000,1390.500000 1.000002,1389.375000 
	C3.250324,1387.583008 5.744792,1386.442017 7.710029,1384.702881 
	C18.061563,1375.542236 28.249592,1366.197144 38.551086,1356.979492 
	C53.598785,1343.515137 68.674103,1330.081421 83.778275,1316.680298 
	C91.995529,1309.389648 100.288330,1302.183960 108.562286,1294.957275 
	C121.508064,1283.650146 134.521683,1272.419922 147.402588,1261.039429 
	C157.626678,1252.005981 167.626709,1242.719116 177.849579,1233.684326 
	C190.863892,1222.182373 204.032104,1210.854980 217.075607,1199.385864 
	C223.857468,1193.422607 230.468018,1187.264771 237.236359,1181.285889 
	C250.886520,1169.227783 264.609558,1157.252319 278.266205,1145.201782 
	C284.798584,1139.437744 291.219971,1133.548096 297.740479,1127.770264 
	C311.983826,1115.149536 326.294128,1102.603882 340.508423,1089.950562 
	C350.833221,1080.759521 360.974335,1071.361572 371.330750,1062.206909 
	C384.219299,1050.813843 397.276123,1039.611206 410.199066,1028.256714 
	C417.003571,1022.278076 423.641022,1016.109680 430.418427,1010.099731 
	C443.660400,998.357300 456.947784,986.666016 470.567810,974.884033 
	C471.253296,976.397156 471.879486,977.979797 471.879822,979.562500 
	C471.908020,1116.668823 471.887878,1253.775146 471.860474,1391.337158 
z"/>
<path fill="#005DAA" opacity="1.000000" stroke="none" 
	d="
M470.999481,462.000000 
	C471.016022,446.669922 470.938721,431.838989 471.068298,417.009918 
	C471.316833,388.567963 472.290436,360.116821 471.810455,331.688934 
	C471.416504,308.352661 466.537598,285.762512 456.247345,264.482452 
	C445.357513,241.962509 427.886444,226.960739 404.860352,218.079086 
	C390.069427,212.373932 374.645691,209.389099 358.876038,207.970901 
	C340.824402,206.347488 322.788696,204.547043 304.334717,202.784210 
	C304.334717,177.304657 304.334717,151.057938 304.334717,124.228928 
	C306.035736,124.154015 307.793671,124.008835 309.551605,124.008766 
	C565.010437,123.998878 820.469421,123.896141 1075.927734,124.251541 
	C1091.577759,124.273315 1107.239868,127.796333 1122.865723,129.915726 
	C1141.136719,132.393906 1158.770386,137.526031 1176.114502,143.607605 
	C1196.472290,150.745956 1216.072388,159.596069 1235.209106,170.940659 
	C1176.942505,222.680099 1118.829346,274.283386 1061.603271,325.098877 
	C1051.245483,309.426025 1041.832275,293.354980 1030.620117,278.656006 
	C1014.814209,257.934540 995.594604,240.615997 973.148254,226.995850 
	C960.404175,219.262909 947.259155,212.746918 932.542480,209.797302 
	C919.762512,207.235870 906.901428,207.236496 894.044739,208.892044 
	C883.312256,210.274033 872.463257,211.314896 861.960754,213.768753 
	C850.363159,216.478470 838.828369,219.934540 827.757935,224.309891 
	C811.430054,230.763184 796.365479,239.738724 784.102844,252.524277 
	C769.210754,268.051331 760.910278,286.416809 760.942993,308.397003 
	C761.078979,399.882050 760.865417,491.367981 761.248779,582.851624 
	C761.280701,590.458435 758.237366,594.895996 753.213379,599.217407 
	C745.841125,605.558655 738.481934,611.915955 731.179016,618.336670 
	C717.027893,630.778198 702.901855,643.248352 688.801697,655.747498 
	C681.996643,661.779785 675.315308,667.951782 668.505310,673.978394 
	C654.653870,686.236389 640.737549,698.421021 626.879395,710.671448 
	C620.305237,716.482971 613.830811,722.407166 607.263000,728.226013 
	C593.054810,740.814331 578.773438,753.320312 564.602539,765.950439 
	C553.969971,775.426941 543.540588,785.131958 532.880554,794.577026 
	C519.917603,806.062500 506.783264,817.354187 493.770844,828.784180 
	C487.178864,834.574524 480.698334,840.491638 474.148071,846.329773 
	C473.466156,846.937500 472.652740,847.397705 470.999084,848.559753 
	C470.999084,719.258362 470.999084,590.879211 470.999481,462.000000 
z"/>
</svg>