<svg class="border shadow-md dark:border-slate-700" viewBox="0 0 1013.76 506.88" xmlns="http://www.w3.org/2000/svg" preserveAspectRatio="none" style="width: 1013.76px; height: 506.88px;"><rect class="bg" id="bg" x="0" y="0" width="1013.76" height="506.88" fill="#8d3636"></rect><path d="M 0 -72.41142857142857 L 0 -72.41
                L 84.48 -32.41
                L 253.44 -72.41 L 253.44 -72.41
                L 364.44 -36.21
                L 506.88 -72.41 L 506.88 -72.41
                L 629.88 -36.21
                L 760.3199999999999 -72.41 L 760.3199999999999 -72.41
                L 844.80 -36.21
                L 1013.76 -72.41 L 1013.76 -72.41
                L 1098.24 -8.41
                L 1267.2 -72.41  V 506.88 H 0 V -72.41 Z" fill="#52D6FA"></path><path d="M 0 0 L 0 0.00
                L 84.48 46.00
                L 253.44 0.00 L 253.44 0.00
                L 439.44 36.21
                L 506.88 0.00 L 506.88 0.00
                L 591.36 39.00
                L 760.3199999999999 0.00 L 760.3199999999999 0.00
                L 896.32 36.21
                L 1013.76 0.00 L 1013.76 0.00
                L 1156.76 36.21
                L 1267.2 0.00  V 506.88 H 0 V 0.00 Z" fill="#48bee4"></path><path d="M 0 72.41142857142857 L 0 72.41
                L 90.00 127.41
                L 253.44 72.41 L 253.44 72.41
                L 337.92 108.62
                L 506.88 72.41 L 506.88 72.41
                L 651.88 112.41
                L 760.3199999999999 72.41 L 760.3199999999999 72.41
                L 844.80 122.41
                L 1013.76 72.41 L 1013.76 72.41
                L 1098.24 108.62
                L 1267.2 72.41  V 506.88 H 0 V 72.41 Z" fill="#3ea6ce"></path><path d="M 0 144.82285714285715 L 0 144.82
                L 122.00 190.82
                L 253.44 144.82 L 253.44 144.82
                L 386.44 181.03
                L 506.88 144.82 L 506.88 144.82
                L 591.36 181.03
                L 760.3199999999999 144.82 L 760.3199999999999 144.82
                L 861.32 181.03
                L 1013.76 144.82 L 1013.76 144.82
                L 1098.24 184.82
                L 1267.2 144.82  V 506.88 H 0 V 144.82 Z" fill="#348eb8"></path><path d="M 0 217.2342857142857 L 0 217.23
                L 132.00 253.44
                L 253.44 217.23 L 253.44 217.23
                L 429.44 253.44
                L 506.88 217.23 L 506.88 217.23
                L 591.36 279.23
                L 760.3199999999999 217.23 L 760.3199999999999 217.23
                L 898.32 253.44
                L 1013.76 217.23 L 1013.76 217.23
                L 1164.76 253.44
                L 1267.2 217.23  V 506.88 H 0 V 217.23 Z" fill="#2a76a2"></path><path d="M 0 289.6457142857143 L 0 289.65
                L 84.48 351.65
                L 253.44 289.65 L 253.44 289.65
                L 439.44 335.65
                L 506.88 289.65 L 506.88 289.65
                L 682.88 325.85
                L 760.3199999999999 289.65 L 760.3199999999999 289.65
                L 889.32 351.65
                L 1013.76 289.65 L 1013.76 289.65
                L 1191.76 351.65
                L 1267.2 289.65  V 506.88 H 0 V 289.65 Z" fill="#205e8c"></path><path d="M 0 362.0571428571429 L 0 362.06
                L 84.48 398.26
                L 253.44 362.06 L 253.44 362.06
                L 337.92 415.06
                L 506.88 362.06 L 506.88 362.06
                L 591.36 398.26
                L 760.3199999999999 362.06 L 760.3199999999999 362.06
                L 912.32 398.26
                L 1013.76 362.06 L 1013.76 362.06
                L 1098.24 398.26
                L 1267.2 362.06  V 506.88 H 0 V 362.06 Z" fill="#164676"></path><path d="M 0 434.4685714285714 L 0 434.47
                L 87.00 470.67
                L 253.44 434.47 L 253.44 434.47
                L 337.92 470.67
                L 506.88 434.47 L 506.88 434.47
                L 658.88 490.47
                L 760.3199999999999 434.47 L 760.3199999999999 434.47
                L 844.80 470.67
                L 1013.76 434.47 L 1013.76 434.47
                L 1111.76 470.67
                L 1267.2 434.47  V 506.88 H 0 V 434.47 Z" fill="#0c2e60"></path></svg>